<svg xmlns="http://www.w3.org/2000/svg" viewBox="0 0 41.53 41.53"><g id="Calque_2" data-name="Calque 2"><g id="Layer_2" data-name="Layer 2"><circle cx="20.76" cy="20.76" r="20.76" transform="translate(-6.37 9.53) rotate(-22.5)" style="fill:#f1ece0"></circle><rect x="11.3" y="7.74" width="18.92" height="24.49" style="fill:none;stroke:#656d47;stroke-linecap:round;stroke-linejoin:round;stroke-width:0.7000000000000001px"></rect><path d="M16.86,16.11h-3V11.32a1.53,1.53,0,0,1,1.53-1.53h0a1.52,1.52,0,0,1,1.52,1.53Z" style="fill:none;stroke:#656d47;stroke-linecap:round;stroke-linejoin:round;stroke-width:0.7000000000000001px"></path><path d="M22.29,16.11H19.24V11.32a1.52,1.52,0,0,1,1.52-1.53h0a1.52,1.52,0,0,1,1.53,1.53Z" style="fill:none;stroke:#656d47;stroke-linecap:round;stroke-linejoin:round;stroke-width:0.7000000000000001px"></path><path d="M16.86,24.65h-3V19.86a1.54,1.54,0,0,1,1.53-1.53h0a1.53,1.53,0,0,1,1.52,1.53Z" style="fill:none;stroke:#656d47;stroke-linecap:round;stroke-linejoin:round;stroke-width:0.7000000000000001px"></path><path d="M22.29,24.65H19.24V19.86a1.53,1.53,0,0,1,1.52-1.53h0a1.53,1.53,0,0,1,1.53,1.53Z" style="fill:none;stroke:#656d47;stroke-linecap:round;stroke-linejoin:round;stroke-width:0.7000000000000001px"></path><path d="M27.71,16.11H24.66V11.32a1.53,1.53,0,0,1,1.53-1.53h0a1.52,1.52,0,0,1,1.52,1.53Z" style="fill:none;stroke:#656d47;stroke-linecap:round;stroke-linejoin:round;stroke-width:0.7000000000000001px"></path><path d="M27.71,24.65H24.66V19.86a1.54,1.54,0,0,1,1.53-1.53h0a1.53,1.53,0,0,1,1.52,1.53Z" style="fill:none;stroke:#656d47;stroke-linecap:round;stroke-linejoin:round;stroke-width:0.7000000000000001px"></path><rect x="13.81" y="27.1" width="8.6" height="5.13" style="fill:none;stroke:#656d47;stroke-linecap:round;stroke-linejoin:round;stroke-width:0.7000000000000001px"></rect><rect x="24.66" y="27.1" width="3.05" height="3.05" style="fill:none;stroke:#656d47;stroke-linecap:round;stroke-linejoin:round;stroke-width:0.7000000000000001px"></rect></g></g></svg>